<svg xmlns="http://www.w3.org/2000/svg" viewBox="0 0 1024 1024" width="256" height="256">
  <defs>
    <linearGradient id="gradient1" x1="0%" y1="0%" x2="100%" y2="100%">
      <stop offset="0%" style="stop-color: #41D1FF; stop-opacity: 1" />
      <stop offset="100%" style="stop-color: #BD34FE; stop-opacity: 1" />
    </linearGradient>
  </defs>
  <g fill="url(#gradient1)">
    <path d="M512 64C300 64 128 228.6 128 416c0 120.4 86.8 222.6 211 261.6V832c0 6.4 7.6 9.6 12.2 5.6l123.2-107.8c12.2 1.2 24.6 1.8 37.6 1.8 212 0 384-164.6 384-352S724 64 512 64zm-24 504c-22.1 0-40-17.9-40-40s17.9-40 40-40 40 17.9 40 40-17.9 40-40 40zm128 0c-22.1 0-40-17.9-40-40s17.9-40 40-40 40 17.9 40 40-17.9 40-40 40zm-256 0c-22.1 0-40-17.9-40-40s17.9-40 40-40 40 17.9 40 40-17.9 40-40 40z" />
  </g>
</svg>
